# xmcd
#
# Track frame offsets:
# 150
# 15270
# 45431
# 61047
# 77665
# 110544
# 127669
# 147862
# 167956
# 185134
# 204834
# 229807
# 244882
# 263501
# 294203
# 319129
#
# Disc length: 4676 seconds
#
#
# Revision: 0
# Processed by: cddbd v1.5.2PL0 Copyright (c) Steve Scherf et al.
# Submitted via: FreeRIP 2.945 
#
DISCID=cc124210
DTITLE=Tab Benoit - Best of the Bayou Blues
DYEAR=2006
DGENRE=Blues
TTITLE0=Voodoo on the Bayou
TTITLE1=Drownin' on Dry Land
TTITLE2=Somehow
TTITLE3=Jambalaya
TTITLE4=Nice and Warm
TTITLE5=Rainy Day Blues
TTITLE6=Gone Too Long
TTITLE7=What I Live For
TTITLE8=Mother Earth
TTITLE9=Crawfishin'
TTITLE10=Standing on the Bank
TTITLE11=The 7th Son
TTITLE12=You Got What I Want
TTITLE13=Cherry Tree Blues
TTITLE14=Hot Tamale Baby
TTITLE15=These Blues Are All Mine
EXTD=
EXTT0=
EXTT1=
EXTT2=
EXTT3=
EXTT4=
EXTT5=
EXTT6=
EXTT7=
EXTT8=
EXTT9=
EXTT10=
EXTT11=
EXTT12=
EXTT13=
EXTT14=
EXTT15=
PLAYORDER=
